<svg width="1024" height="1024" viewBox="0 0 1024 1024" fill="none" xmlns="http://www.w3.org/2000/svg">
<rect width="1024" height="1024" rx="20" fill="url(#paint0_radial_27_2)"/>
<path d="M484.484 560.785V674H427.877V373.809H545.38C560.818 373.809 574.255 376.382 585.691 381.529C597.127 386.389 606.562 392.964 613.995 401.255C621.714 409.26 627.432 418.552 631.149 429.13C635.151 439.423 637.152 450.001 637.152 460.865V471.157C637.152 482.307 635.151 493.314 631.149 504.178C627.432 514.756 621.714 524.334 613.995 532.91C606.562 541.201 597.127 547.92 585.691 553.066C574.255 558.212 560.818 560.785 545.38 560.785H484.484ZM484.484 506.751H539.805C552.384 506.751 562.248 503.32 569.395 496.459C576.828 489.597 580.545 480.734 580.545 469.87V464.724C580.545 453.86 576.828 444.997 569.395 438.136C562.248 431.274 552.384 427.844 539.805 427.844H484.484V506.751Z" fill="black"/>
<defs>
<radialGradient id="paint0_radial_27_2" cx="0" cy="0" r="1" gradientUnits="userSpaceOnUse" gradientTransform="translate(512 512) rotate(90) scale(512)">
<stop stop-color="#D6D1D1"/>
<stop offset="0.490385" stop-color="#E1E1DF"/>
<stop offset="1" stop-color="#030303" stop-opacity="0"/>
</radialGradient>
</defs>
</svg>
